<svg id="SvgjsSvg1006" width="759" height="450" xmlns="http://www.w3.org/2000/svg" version="1.1" xmlns:xlink="http://www.w3.org/1999/xlink" xmlns:svgjs="http://svgjs.com/svgjs"><defs id="SvgjsDefs1007"><marker id="SvgjsMarker1034" markerWidth="16" markerHeight="12" refX="16" refY="6" viewBox="0 0 16 12" orient="auto" markerUnits="userSpaceOnUse" stroke-dasharray="0,0"><path id="SvgjsPath1035" d="M0,2 L14,6 L0,11 L0,2" fill="#323232" stroke="#323232" stroke-width="2"></path></marker><marker id="SvgjsMarker1042" markerWidth="16" markerHeight="12" refX="16" refY="6" viewBox="0 0 16 12" orient="auto" markerUnits="userSpaceOnUse" stroke-dasharray="0,0"><path id="SvgjsPath1043" d="M0,2 L14,6 L0,11 L0,2" fill="#323232" stroke="#323232" stroke-width="2"></path></marker><marker id="SvgjsMarker1046" markerWidth="16" markerHeight="12" refX="16" refY="6" viewBox="0 0 16 12" orient="auto" markerUnits="userSpaceOnUse" stroke-dasharray="0,0"><path id="SvgjsPath1047" d="M0,2 L14,6 L0,11 L0,2" fill="#323232" stroke="#323232" stroke-width="2"></path></marker><marker id="SvgjsMarker1060" markerWidth="16" markerHeight="12" refX="16" refY="6" viewBox="0 0 16 12" orient="auto" markerUnits="userSpaceOnUse" stroke-dasharray="0,0"><path id="SvgjsPath1061" d="M0,2 L14,6 L0,11 L0,2" fill="#323232" stroke="#323232" stroke-width="2"></path></marker><marker id="SvgjsMarker1074" markerWidth="16" markerHeight="12" refX="16" refY="6" viewBox="0 0 16 12" orient="auto" markerUnits="userSpaceOnUse" stroke-dasharray="0,0"><path id="SvgjsPath1075" d="M0,2 L14,6 L0,11 L0,2" fill="#323232" stroke="#323232" stroke-width="2"></path></marker><marker id="SvgjsMarker1084" markerWidth="16" markerHeight="12" refX="16" refY="6" viewBox="0 0 16 12" orient="auto" markerUnits="userSpaceOnUse" stroke-dasharray="0,0"><path id="SvgjsPath1085" d="M0,2 L14,6 L0,11 L0,2" fill="#323232" stroke="#323232" stroke-width="2"></path></marker><marker id="SvgjsMarker1094" markerWidth="16" markerHeight="12" refX="16" refY="6" viewBox="0 0 16 12" orient="auto" markerUnits="userSpaceOnUse" stroke-dasharray="0,0"><path id="SvgjsPath1095" d="M0,2 L14,6 L0,11 L0,2" fill="#323232" stroke="#323232" stroke-width="2"></path></marker><marker id="SvgjsMarker1104" markerWidth="16" markerHeight="12" refX="16" refY="6" viewBox="0 0 16 12" orient="auto" markerUnits="userSpaceOnUse" stroke-dasharray="0,0"><path id="SvgjsPath1105" d="M0,2 L14,6 L0,11 L0,2" fill="#323232" stroke="#323232" stroke-width="2"></path></marker><marker id="SvgjsMarker1114" markerWidth="16" markerHeight="12" refX="16" refY="6" viewBox="0 0 16 12" orient="auto" markerUnits="userSpaceOnUse" stroke-dasharray="0,0"><path id="SvgjsPath1115" d="M0,2 L14,6 L0,11 L0,2" fill="#323232" stroke="#323232" stroke-width="2"></path></marker></defs><g id="SvgjsG1008" transform="translate(25,112)"><path id="SvgjsPath1009" d="M 0 35C 0 -11.666666666666666 70 -11.666666666666666 70 35C 70 81.66666666666667 0 81.66666666666667 0 35Z" stroke="rgba(50,50,50,1)" stroke-width="2" fill-opacity="1" fill="#ffffff"></path><g id="SvgjsG1010"><text id="SvgjsText1011" font-family="微软雅黑" text-anchor="middle" font-size="13px" width="50px" fill="#323232" font-weight="400" align="middle" anchor="middle" family="微软雅黑" size="13px" weight="400" font-style="" opacity="1" y="25.05" transform="rotate(0)"><tspan id="SvgjsTspan1012" dy="16" x="35"><tspan id="SvgjsTspan1013" style="text-decoration:;">A</tspan></tspan></text></g></g><g id="SvgjsG1014" transform="translate(196,112)"><path id="SvgjsPath1015" d="M 0 0L 100 0L 100 70L 0 70Z" stroke="rgba(50,50,50,1)" stroke-width="2" fill-opacity="1" fill="#ffffff"></path><g id="SvgjsG1016"><text id="SvgjsText1017" font-family="微软雅黑" text-anchor="middle" font-size="13px" width="80px" fill="#323232" font-weight="400" align="middle" anchor="middle" family="微软雅黑" size="13px" weight="400" font-style="" opacity="1" y="25.05" transform="rotate(0)"><tspan id="SvgjsTspan1018" dy="16" x="50"><tspan id="SvgjsTspan1019" style="text-decoration:;">登录</tspan></tspan></text></g></g><g id="SvgjsG1020" transform="translate(196,240)"><path id="SvgjsPath1021" d="M 0 0L 100 0L 100 70L 0 70Z" stroke="rgba(50,50,50,1)" stroke-width="2" fill-opacity="1" fill="#ffffff"></path><g id="SvgjsG1022"><text id="SvgjsText1023" font-family="微软雅黑" text-anchor="middle" font-size="13px" width="80px" fill="#323232" font-weight="400" align="middle" anchor="middle" family="微软雅黑" size="13px" weight="400" font-style="" opacity="1" y="25.05" transform="rotate(0)"><tspan id="SvgjsTspan1024" dy="16" x="50"><tspan id="SvgjsTspan1025" style="text-decoration:;">鉴权</tspan></tspan></text></g></g><g id="SvgjsG1026" transform="translate(25,240)"><path id="SvgjsPath1027" d="M 0 35C 0 -11.666666666666666 70 -11.666666666666666 70 35C 70 81.66666666666667 0 81.66666666666667 0 35Z" stroke="rgba(50,50,50,1)" stroke-width="2" fill-opacity="1" fill="#ffffff"></path><g id="SvgjsG1028"><text id="SvgjsText1029" font-family="微软雅黑" text-anchor="middle" font-size="13px" width="50px" fill="#323232" font-weight="400" align="middle" anchor="middle" family="微软雅黑" size="13px" weight="400" font-style="" opacity="1" y="25.05" transform="rotate(0)"><tspan id="SvgjsTspan1030" dy="16" x="35"><tspan id="SvgjsTspan1031" style="text-decoration:;">游客</tspan></tspan></text></g></g><g id="SvgjsG1032"><path id="SvgjsPath1033" d="M196 275L145.5 275L145.5 275L95 275" stroke="#323232" stroke-width="2" fill="none" marker-end="url(#SvgjsMarker1034)"></path><rect id="SvgjsRect1036" width="11" height="16" x="140" y="267" fill="#ffffff"></rect><text id="SvgjsText1037" font-family="微软雅黑" text-anchor="middle" font-size="13px" width="11px" fill="#323232" font-weight="400" align="top" anchor="middle" family="微软雅黑" size="13px" weight="400" font-style="" opacity="1" y="265.05" transform="rotate(0)"><tspan id="SvgjsTspan1038" dy="16" x="145.5"><tspan id="SvgjsTspan1039" style="text-decoration:;">N</tspan></tspan></text></g><g id="SvgjsG1040"><path id="SvgjsPath1041" d="M246 182L246 211L246 211L246 240" stroke="#323232" stroke-width="2" fill="none" marker-end="url(#SvgjsMarker1042)"></path></g><g id="SvgjsG1044"><path id="SvgjsPath1045" d="M95 147L145.5 147L145.5 147L196 147" stroke="#323232" stroke-width="2" fill="none" marker-end="url(#SvgjsMarker1046)"></path></g><g id="SvgjsG1048" transform="translate(325,355)"><path id="SvgjsPath1049" d="M 0 0L 100 0L 100 70L 0 70Z" stroke="rgba(50,50,50,1)" stroke-width="2" fill-opacity="1" fill="#ffffff"></path><g id="SvgjsG1050"><text id="SvgjsText1051" font-family="微软雅黑" text-anchor="middle" font-size="13px" width="80px" fill="#323232" font-weight="400" align="middle" anchor="middle" family="微软雅黑" size="13px" weight="400" font-style="" opacity="1" y="9.05" transform="rotate(0)"><tspan id="SvgjsTspan1052" dy="16" x="50"><tspan id="SvgjsTspan1053" style="text-decoration:;">获取</tspan></tspan><tspan id="SvgjsTspan1054" dy="16" x="50"><tspan id="SvgjsTspan1055" style="text-decoration:;">WebSocket</tspan></tspan><tspan id="SvgjsTspan1056" dy="16" x="50"><tspan id="SvgjsTspan1057" style="text-decoration:;">链接</tspan></tspan></text></g></g><g id="SvgjsG1058"><path id="SvgjsPath1059" d="M246 310L246 390L325 390" stroke="#323232" stroke-width="2" fill="none" marker-end="url(#SvgjsMarker1060)"></path><rect id="SvgjsRect1062" width="8" height="16" x="242" y="381.5" fill="#ffffff"></rect><text id="SvgjsText1063" font-family="微软雅黑" text-anchor="middle" font-size="13px" width="8px" fill="#323232" font-weight="400" align="top" anchor="middle" family="微软雅黑" size="13px" weight="400" font-style="" opacity="1" y="379.55" transform="rotate(0)"><tspan id="SvgjsTspan1064" dy="16" x="246"><tspan id="SvgjsTspan1065" style="text-decoration:;">Y</tspan></tspan></text></g><g id="SvgjsG1066" transform="translate(363,221)"><path id="SvgjsPath1067" d="M 0 0L 100 0L 100 70L 0 70Z" stroke="rgba(50,50,50,1)" stroke-width="2" fill-opacity="1" fill="#ffffff"></path><g id="SvgjsG1068"><text id="SvgjsText1069" font-family="微软雅黑" text-anchor="middle" font-size="13px" width="80px" fill="#323232" font-weight="400" align="middle" anchor="middle" family="微软雅黑" size="13px" weight="400" font-style="" opacity="1" y="25.05" transform="rotate(0)"><tspan id="SvgjsTspan1070" dy="16" x="50"><tspan id="SvgjsTspan1071" style="text-decoration:;">发送消息</tspan></tspan></text></g></g><g id="SvgjsG1072"><path id="SvgjsPath1073" d="M375 355L375 323L413 323L413 291" stroke="#323232" stroke-width="2" fill="none" marker-end="url(#SvgjsMarker1074)"></path></g><g id="SvgjsG1076" transform="translate(363,112)"><path id="SvgjsPath1077" d="M 0 0L 100 0L 100 70L 0 70Z" stroke="rgba(50,50,50,1)" stroke-width="2" fill-opacity="1" fill="#ffffff"></path><g id="SvgjsG1078"><text id="SvgjsText1079" font-family="微软雅黑" text-anchor="middle" font-size="13px" width="80px" fill="#323232" font-weight="400" align="middle" anchor="middle" family="微软雅黑" size="13px" weight="400" font-style="" opacity="1" y="25.05" transform="rotate(0)"><tspan id="SvgjsTspan1080" dy="16" x="50"><tspan id="SvgjsTspan1081" style="text-decoration:;">根据消息类型</tspan></tspan></text></g></g><g id="SvgjsG1082"><path id="SvgjsPath1083" d="M413 221L413 201.5L413 201.5L413 182" stroke="#323232" stroke-width="2" fill="none" marker-end="url(#SvgjsMarker1084)"></path></g><g id="SvgjsG1086" transform="translate(664,112)"><path id="SvgjsPath1087" d="M 0 35C 0 -11.666666666666666 70 -11.666666666666666 70 35C 70 81.66666666666667 0 81.66666666666667 0 35Z" stroke="rgba(50,50,50,1)" stroke-width="2" fill-opacity="1" fill="#ffffff"></path><g id="SvgjsG1088"><text id="SvgjsText1089" font-family="微软雅黑" text-anchor="middle" font-size="13px" width="50px" fill="#323232" font-weight="400" align="middle" anchor="middle" family="微软雅黑" size="13px" weight="400" font-style="" opacity="1" y="25.05" transform="rotate(0)"><tspan id="SvgjsTspan1090" dy="16" x="35"><tspan id="SvgjsTspan1091" style="text-decoration:;">B</tspan></tspan></text></g></g><g id="SvgjsG1092"><path id="SvgjsPath1093" d="M463 147L563.5 147L563.5 147L664 147" stroke="#323232" stroke-width="2" fill="none" marker-end="url(#SvgjsMarker1094)"></path></g><g id="SvgjsG1096" transform="translate(664,195)"><path id="SvgjsPath1097" d="M 0 35C 0 -11.666666666666666 70 -11.666666666666666 70 35C 70 81.66666666666667 0 81.66666666666667 0 35Z" stroke="rgba(50,50,50,1)" stroke-width="2" fill-opacity="1" fill="#ffffff"></path><g id="SvgjsG1098"><text id="SvgjsText1099" font-family="微软雅黑" text-anchor="middle" font-size="13px" width="50px" fill="#323232" font-weight="400" align="middle" anchor="middle" family="微软雅黑" size="13px" weight="400" font-style="" opacity="1" y="25.05" transform="rotate(0)"><tspan id="SvgjsTspan1100" dy="16" x="35"><tspan id="SvgjsTspan1101" style="text-decoration:;">群聊</tspan></tspan></text></g></g><g id="SvgjsG1102"><path id="SvgjsPath1103" d="M463 147L563.5 147L563.5 230L664 230" stroke="#323232" stroke-width="2" fill="none" marker-end="url(#SvgjsMarker1104)"></path></g><g id="SvgjsG1106" transform="translate(664,25)"><path id="SvgjsPath1107" d="M 0 35C 0 -11.666666666666666 70 -11.666666666666666 70 35C 70 81.66666666666667 0 81.66666666666667 0 35Z" stroke="rgba(50,50,50,1)" stroke-width="2" fill-opacity="1" fill="#ffffff"></path><g id="SvgjsG1108"><text id="SvgjsText1109" font-family="微软雅黑" text-anchor="middle" font-size="13px" width="50px" fill="#323232" font-weight="400" align="middle" anchor="middle" family="微软雅黑" size="13px" weight="400" font-style="" opacity="1" y="25.05" transform="rotate(0)"><tspan id="SvgjsTspan1110" dy="16" x="35"><tspan id="SvgjsTspan1111" style="text-decoration:;">广播</tspan></tspan></text></g></g><g id="SvgjsG1112"><path id="SvgjsPath1113" d="M463 147L563.5 147L563.5 60L664 60" stroke="#323232" stroke-width="2" fill="none" marker-end="url(#SvgjsMarker1114)"></path></g></svg>